<svg xmlns="http://www.w3.org/2000/svg" width="720" height="320" viewBox="0 0 720 320"><rect x="0" y="0" width="720" height="320" rx="14" fill="#141120" /><defs><linearGradient id="pcgrad-1-iuhs" x1="0" y1="0" x2="0" y2="1"><stop offset="0%" stop-color="#8b7bff" stop-opacity="0.4"/><stop offset="100%" stop-color="#8b7bff" stop-opacity="0.03"/></linearGradient><linearGradient id="pcgrad-2-w9ho" x1="0" y1="0" x2="0" y2="1"><stop offset="0%" stop-color="#34d399" stop-opacity="0.4"/><stop offset="100%" stop-color="#34d399" stop-opacity="0.03"/></linearGradient></defs><line x1="14" y1="16" x2="706" y2="16" stroke="#5a5580" stroke-width="1" opacity="0.12" /><line x1="14" y1="65.6" x2="706" y2="65.6" stroke="#5a5580" stroke-width="1" opacity="0.12" /><line x1="14" y1="115.2" x2="706" y2="115.2" stroke="#5a5580" stroke-width="1" opacity="0.12" /><line x1="14" y1="164.8" x2="706" y2="164.8" stroke="#5a5580" stroke-width="1" opacity="0.12" /><line x1="14" y1="214.4" x2="706" y2="214.4" stroke="#5a5580" stroke-width="1" opacity="0.12" /><line x1="14" y1="264" x2="706" y2="264" stroke="#5a5580" stroke-width="1" opacity="0.12" /><line x1="14" y1="16" x2="14" y2="264" stroke="#4a4490" stroke-width="1" opacity="0.12" /><line x1="112.86" y1="16" x2="112.86" y2="264" stroke="#4a4490" stroke-width="1" opacity="0.12" /><line x1="211.71" y1="16" x2="211.71" y2="264" stroke="#4a4490" stroke-width="1" opacity="0.12" /><line x1="310.57" y1="16" x2="310.57" y2="264" stroke="#4a4490" stroke-width="1" opacity="0.12" /><line x1="409.43" y1="16" x2="409.43" y2="264" stroke="#4a4490" stroke-width="1" opacity="0.12" /><line x1="508.29" y1="16" x2="508.29" y2="264" stroke="#4a4490" stroke-width="1" opacity="0.12" /><line x1="607.14" y1="16" x2="607.14" y2="264" stroke="#4a4490" stroke-width="1" opacity="0.12" /><line x1="706" y1="16" x2="706" y2="264" stroke="#4a4490" stroke-width="1" opacity="0.12" /><path d="M14,16 L129.33,16 L244.67,16 L360,16 L475.33,16 L590.67,16 L706,16 L706,264 L14,264 Z" fill="url(#pcgrad-1-iuhs)" stroke="none" /><path d="M14,16 L129.33,16 L244.67,16 L360,16 L475.33,16 L590.67,16 L706,16" fill="none" stroke="#8b7bff" stroke-width="2" stroke-linejoin="round" stroke-linecap="round" /><path d="M14,16 L129.33,16 L244.67,16 L360,16 L475.33,16 L590.67,16 L706,16 L706,264 L14,264 Z" fill="url(#pcgrad-2-w9ho)" stroke="none" /><path d="M14,16 L129.33,16 L244.67,16 L360,16 L475.33,16 L590.67,16 L706,16" fill="none" stroke="#34d399" stroke-width="2" stroke-linejoin="round" stroke-linecap="round" /><text x="14" y="282" font-size="11" fill="#5a5580" font-family="sans-serif" text-anchor="middle">Mon</text><text x="129.33" y="282" font-size="11" fill="#5a5580" font-family="sans-serif" text-anchor="middle">Tue</text><text x="244.67" y="282" font-size="11" fill="#5a5580" font-family="sans-serif" text-anchor="middle">Wed</text><text x="360" y="282" font-size="11" fill="#5a5580" font-family="sans-serif" text-anchor="middle">Thu</text><text x="475.33" y="282" font-size="11" fill="#5a5580" font-family="sans-serif" text-anchor="middle">Fri</text><text x="590.67" y="282" font-size="11" fill="#5a5580" font-family="sans-serif" text-anchor="middle">Sat</text><text x="706" y="282" font-size="11" fill="#5a5580" font-family="sans-serif" text-anchor="middle">Sun</text><rect x="250" y="297" width="10" height="10" rx="2" fill="#8b7bff" /><text x="264" y="306" font-size="12" fill="#5a5580" font-family="sans-serif">API Requests</text><rect x="362" y="297" width="10" height="10" rx="2" fill="#34d399" /><text x="376" y="306" font-size="12" fill="#5a5580" font-family="sans-serif">Successful Responses</text></svg>