<svg xmlns="http://www.w3.org/2000/svg" width="640" height="280" viewBox="0 0 640 280"><rect x="0" y="0" width="640" height="280" rx="14" fill="#141120" /><defs><linearGradient id="pcgrad-1-20wi" x1="0" y1="0" x2="0" y2="1"><stop offset="0%" stop-color="#8b7bff" stop-opacity="0.4"/><stop offset="100%" stop-color="#8b7bff" stop-opacity="0.03"/></linearGradient></defs><line x1="46" y1="16" x2="626" y2="16" stroke="#5a5580" stroke-width="1" opacity="0.12" /><line x1="46" y1="57.6" x2="626" y2="57.6" stroke="#5a5580" stroke-width="1" opacity="0.12" /><line x1="46" y1="99.2" x2="626" y2="99.2" stroke="#5a5580" stroke-width="1" opacity="0.12" /><line x1="46" y1="140.8" x2="626" y2="140.8" stroke="#5a5580" stroke-width="1" opacity="0.12" /><line x1="46" y1="182.4" x2="626" y2="182.4" stroke="#5a5580" stroke-width="1" opacity="0.12" /><line x1="46" y1="224" x2="626" y2="224" stroke="#5a5580" stroke-width="1" opacity="0.12" /><line x1="46" y1="16" x2="46" y2="224" stroke="#4a4490" stroke-width="1" opacity="0.12" /><line x1="128.86" y1="16" x2="128.86" y2="224" stroke="#4a4490" stroke-width="1" opacity="0.12" /><line x1="211.71" y1="16" x2="211.71" y2="224" stroke="#4a4490" stroke-width="1" opacity="0.12" /><line x1="294.57" y1="16" x2="294.57" y2="224" stroke="#4a4490" stroke-width="1" opacity="0.12" /><line x1="377.43" y1="16" x2="377.43" y2="224" stroke="#4a4490" stroke-width="1" opacity="0.12" /><line x1="460.29" y1="16" x2="460.29" y2="224" stroke="#4a4490" stroke-width="1" opacity="0.12" /><line x1="543.14" y1="16" x2="543.14" y2="224" stroke="#4a4490" stroke-width="1" opacity="0.12" /><line x1="626" y1="16" x2="626" y2="224" stroke="#4a4490" stroke-width="1" opacity="0.12" /><text x="38" y="19.5" font-size="10" fill="#5a5580" font-family="sans-serif" text-anchor="end">7</text><text x="38" y="61.1" font-size="10" fill="#5a5580" font-family="sans-serif" text-anchor="end">5.6</text><text x="38" y="102.7" font-size="10" fill="#5a5580" font-family="sans-serif" text-anchor="end">4.2</text><text x="38" y="144.3" font-size="10" fill="#5a5580" font-family="sans-serif" text-anchor="end">2.8</text><text x="38" y="185.9" font-size="10" fill="#5a5580" font-family="sans-serif" text-anchor="end">1.4</text><text x="38" y="227.5" font-size="10" fill="#5a5580" font-family="sans-serif" text-anchor="end">0</text><path d="M46,16 L239.33,224 L432.67,224 L626,224 L626,224 L46,224 Z" fill="url(#pcgrad-1-20wi)" stroke="none" /><path d="M46,16 L239.33,224 L432.67,224 L626,224" fill="none" stroke="#8b7bff" stroke-width="2" stroke-linejoin="round" stroke-linecap="round" /><text x="46" y="242" font-size="11" fill="#5a5580" font-family="sans-serif" text-anchor="middle">Stars</text><text x="239.33" y="242" font-size="11" fill="#5a5580" font-family="sans-serif" text-anchor="middle">Forks</text><text x="432.67" y="242" font-size="11" fill="#5a5580" font-family="sans-serif" text-anchor="middle">Watchers</text><text x="626" y="242" font-size="11" fill="#5a5580" font-family="sans-serif" text-anchor="middle">Issues</text><rect x="265" y="257" width="10" height="10" rx="2" fill="#8b7bff" /><text x="279" y="266" font-size="12" fill="#5a5580" font-family="sans-serif">Count</text></svg>